<?xml version="1.0" encoding="utf-8"?>
<!-- Generator: Adobe Illustrator 19.2.1, SVG Export Plug-In . SVG Version: 6.00 Build 0)  -->
<svg version="1.1" id="Слой_1" xmlns:sketch="http://www.bohemiancoding.com/sketch/ns"
	 xmlns="http://www.w3.org/2000/svg" xmlns:xlink="http://www.w3.org/1999/xlink" x="0px" y="0px" width="32px" height="32px"
	 viewBox="0 0 32 32" style="enable-background:new 0 0 32 32;" xml:space="preserve">
<style type="text/css">
	.st0{fill:#15A748;}
</style>
<title>megafon</title>
<desc>Created with Sketch.</desc>
<g id="Page-1" sketch:type="MSPage">
	<g id="Desktop_v1" transform="translate(-708.000000, -459.000000)" sketch:type="MSArtboardGroup">
		<g id="про-меню" transform="translate(328.000000, 255.000000)" sketch:type="MSLayerGroup">
			<g id="_x35_" transform="translate(330.000000, 204.000000)" sketch:type="MSShapeGroup">
				<g id="megafon" transform="translate(52.000000, 3.000000)">
					<path id="Fill-2" class="st0" d="M13.5,0C6,0,0,6,0,13.5c0,6.6,4.8,12.1,11.1,13.3V14.9c0-0.6,0.5-1,1-1h1.8
						c0.1,0,0.1,0,0.1-0.1V0C13.8,0,13.6,0,13.5,0L13.5,0z M10.9,11.6c-0.9,0-1.6-0.7-1.6-1.6s0.7-1.6,1.6-1.6
						c0.9,0,1.6,0.7,1.6,1.6S11.8,11.6,10.9,11.6L10.9,11.6z"/>
					<path id="Fill-3" class="st0" d="M15.6,0.2v14.3c0,0.6-0.5,1-1,1h-1.8c-0.1,0-0.1,0-0.1,0.1v11.4c0.3,0,0.5,0,0.8,0
						c7.4,0,13.5-6,13.5-13.5C27,6.7,22,1.2,15.6,0.2L15.6,0.2z M15.5,20.4c-0.8,0-1.4-0.6-1.4-1.4c0-0.8,0.6-1.4,1.4-1.4
						c0.8,0,1.4,0.6,1.4,1.4C16.9,19.8,16.3,20.4,15.5,20.4L15.5,20.4z M19.2,20.4c-0.8,0-1.4-0.6-1.4-1.4c0-0.8,0.6-1.4,1.4-1.4
						s1.4,0.6,1.4,1.4C20.7,19.8,20,20.4,19.2,20.4L19.2,20.4z M23,20.4c-0.8,0-1.4-0.6-1.4-1.4c0-0.8,0.6-1.4,1.4-1.4
						s1.4,0.6,1.4,1.4C24.4,19.8,23.8,20.4,23,20.4L23,20.4z"/>
				</g>
			</g>
		</g>
	</g>
</g>
</svg>
