<?xml version="1.0" encoding="UTF-8"?>
<svg width="73px" height="33px" viewBox="0 0 73 33" version="1.1" xmlns="http://www.w3.org/2000/svg" xmlns:xlink="http://www.w3.org/1999/xlink">
    <!-- Generator: Sketch 40.2 (33826) - http://www.bohemiancoding.com/sketch -->
    <title>tel2</title>
    <desc>Created with Sketch.</desc>
    <defs></defs>
    <g id="Page-1" stroke="none" stroke-width="1" fill="none" fill-rule="evenodd">
        <g id="01_Sposobi_Desktop" transform="translate(-813.000000, -463.000000)" fill="#1A1918">
            <g id="про-меню" transform="translate(328.000000, 61.000000)">
                <g id="5" transform="translate(330.000000, 402.000000)">
                    <path d="M206.03578,23.5100801 L198.978408,23.7105736 L198.978408,28.4823194 L206.03578,28.4823194 L206.03578,23.5100801 L206.03578,23.5100801 Z M203.589759,14.9289573 L198.978408,15.3299443 L198.978408,20.1818876 L203.589759,19.9412954 L203.589759,14.9289573 L203.589759,14.9289573 Z M198.096237,7.14980863 L193.284392,7.7913879 L193.284392,28.4823194 L198.096237,28.4823194 L198.096237,7.14980863 L198.096237,7.14980863 Z M206.03578,6.0270449 L198.978408,6.98941381 L198.978408,11.7611596 L206.03578,10.9992843 L206.03578,6.0270449 L206.03578,6.0270449 Z M217.744602,10.4379024 C218.305984,11.6007648 217.704503,13.3651078 216.341147,14.969056 C214.215916,17.4551757 208.561999,22.5878099 208.561999,22.5878099 L216.661937,22.3071189 C221.594078,17.4952744 223.398519,14.568069 223.719309,10.9190869 C223.879704,8.95425033 223.157927,7.10970993 221.794571,5.78645268 C220.27082,4.34289932 218.025293,3.74141875 215.579272,4.10230709 L215.579272,9.39533608 C216.58174,9.31513867 217.383714,9.67602701 217.744602,10.4379024 L217.744602,10.4379024 Z M212.892659,14.0066871 C212.652067,10.7987907 213.654534,10.0369154 214.616903,9.59582961 L214.616903,4.2226032 C209.845157,5.22507081 207.519432,8.75375681 207.800123,14.4878716 L212.892659,14.0066871 L212.892659,14.0066871 Z M224,28.4823194 L224,22.9887969 L207.559531,23.4699814 L207.59963,28.4823194 L224,28.4823194 L224,28.4823194 Z M165.576188,28.4823194 L165.576188,16.0116223 L162.047502,16.3725107 L162.047502,28.4823194 L165.576188,28.4823194 L165.576188,28.4823194 Z M174.197409,14.4878716 L179.530537,13.9264897 L179.530537,9.75622442 L174.197409,10.4780011 L174.197409,14.4878716 L174.197409,14.4878716 Z M174.197409,28.4823194 L179.530537,28.4823194 L179.530537,24.3120542 L174.197409,24.472449 L174.197409,28.4823194 L174.197409,28.4823194 Z M185.104257,8.95425033 L180.933991,9.5557309 L180.933991,28.4823194 L185.104257,28.4823194 L185.104257,8.95425033 L185.104257,8.95425033 Z M185.906231,28.4823194 L192.001234,28.4823194 L192.001234,23.9511658 L185.906231,24.1115606 L185.906231,28.4823194 L185.906231,28.4823194 Z M168.543492,11.2799752 L159,12.6433311 L159.040099,16.1720171 L168.543492,15.1294508 L168.543492,11.2799752 L168.543492,11.2799752 Z M177.685996,17.1744848 L174.197409,17.4551757 L174.197409,21.5452435 L177.685996,21.34475 L177.685996,17.1744848 L177.685996,17.1744848 Z M173.515731,10.5982972 L169.866749,11.1195804 L169.866749,28.4823194 L173.515731,28.4823194 L173.515731,10.5982972 L173.515731,10.5982972 Z" id="Fill-3"></path>
                </g>
            </g>
        </g>
    </g>
</svg>