<?xml version="1.0" encoding="UTF-8" standalone="no"?>
<svg width="30px" height="31px" viewBox="0 0 30 31" version="1.1" xmlns="http://www.w3.org/2000/svg" xmlns:xlink="http://www.w3.org/1999/xlink" xmlns:sketch="http://www.bohemiancoding.com/sketch/ns">
    <!-- Generator: Sketch 3.5.2 (25235) - http://www.bohemiancoding.com/sketch -->
    <title>beel</title>
    <desc>Created with Sketch.</desc>
    <defs></defs>
    <g id="Page-1" stroke="none" stroke-width="1" fill="none" fill-rule="evenodd" sketch:type="MSPage">
        <g id="Desktop_v1" sketch:type="MSArtboardGroup" transform="translate(-658.000000, -460.000000)">
            <g id="про-меню" sketch:type="MSLayerGroup" transform="translate(328.000000, 255.000000)">
                <g id="5" transform="translate(330.000000, 204.000000)" sketch:type="MSShapeGroup">
                    <g id="beeline" transform="translate(2.000000, 3.000000)">
                        <path d="M26.5212474,13.7397316 C26.5212474,21.0631263 20.5862211,27.0002842 13.2628263,27.0002842 C5.9373,27.0002842 0.000142105263,21.0631263 0.000142105263,13.7397316 C0.000142105263,6.41491579 5.9373,0.478468421 13.2628263,0.478468421 C20.5862211,0.478468421 26.5212474,6.41491579 26.5212474,13.7397316" id="Fill-1" fill="#FFD51C"></path>
                        <path d="M3.21157895,22.3912421 C5.64371053,25.2134526 9.24465789,26.9997158 13.2626842,26.9997158 C17.2771579,26.9997158 20.8759737,25.2162947 23.3073947,22.3976368 C22.4661316,22.5148737 19.7874474,22.7919789 13.2690789,22.7919789 C6.56810526,22.7919789 3.97752632,22.5042158 3.21157895,22.3912421" id="Fill-4" fill="#291800"></path>
                        <path d="M26.1919895,16.6955921 C26.4094105,15.7449079 26.5209632,14.7558553 26.5209632,13.7398026 C26.5209632,12.5816447 26.3745947,11.4590132 26.0960684,10.38825 C24.7823053,10.3576974 20.6527263,10.2745658 13.3243579,10.2745658 C5.91783158,10.2745658 1.71648947,10.3584079 0.428305263,10.3910921 C0.148357895,11.4590132 -0.000142105263,12.5816447 -0.000142105263,13.7398026 C-0.000142105263,14.7693553 0.118515789,15.7704868 0.3402,16.7318289 C1.91472632,16.7581184 8.10980526,16.8526184 13.4380421,16.8526184 C18.8437263,16.8526184 24.8078842,16.7254342 26.1919895,16.6955921" id="Fill-6" fill="#291800"></path>
                        <path d="M23.1947763,4.95528158 C20.7661974,2.20980789 17.2171184,0.478255263 13.2623289,0.478255263 C9.30469737,0.478255263 5.75135526,2.21336053 3.32135526,4.96167632 C4.21661842,4.84088684 6.88748684,4.57728158 13.2388816,4.57728158 C19.5483553,4.57728158 22.2469342,4.83093947 23.1947763,4.95528158" id="Fill-9" fill="#291800"></path>
                    </g>
                </g>
            </g>
        </g>
    </g>
</svg>