<?xml version="1.0" encoding="UTF-8"?> <svg xmlns="http://www.w3.org/2000/svg" width="171" height="47" viewBox="0 0 171 47" fill="none"> <g clip-path="url(#clip0)"> <path d="M163.835 0H6.53962C2.92789 0 0 2.80568 0 6.26667V40.7333C0 44.1943 2.92789 47 6.53962 47H163.835C167.447 47 170.375 44.1943 170.375 40.7333V6.26667C170.375 2.80568 167.447 0 163.835 0Z" fill="black"></path> <path fill-rule="evenodd" clip-rule="evenodd" d="M46.827 22.0539C46.7976 18.9347 49.5328 17.4166 49.6587 17.3461C48.1088 15.2139 45.7071 14.9225 44.8635 14.899C42.846 14.6984 40.8907 16.0379 39.8607 16.0379C38.8144 16.0379 37.2318 14.9178 35.5266 14.9507C33.3309 14.982 31.2774 16.1821 30.1526 18.0448C27.8278 21.8424 29.5608 27.4229 31.7875 30.492C32.9009 31.996 34.2023 33.6723 35.9075 33.6144C37.5735 33.5501 38.1964 32.6117 40.2073 32.6117C42.1986 32.6117 42.7839 33.6144 44.5202 33.5768C46.3088 33.5501 47.4352 32.0665 48.5093 30.55C49.7976 28.8266 50.3143 27.1299 50.3339 27.0422C50.293 27.0297 46.8613 25.7936 46.827 22.0539ZM43.5458 12.8795C44.4417 11.822 45.0548 10.3823 44.8848 8.92215C43.5883 8.97542 41.9648 9.76815 41.0313 10.8021C40.204 11.7155 39.4667 13.2101 39.658 14.6154C41.113 14.7172 42.6106 13.9214 43.5458 12.8795ZM70.9451 29.6883H68.6154L67.3402 25.9048H62.9047L61.6899 29.6883H59.4223L63.8153 16.8072H66.5292L70.9435 29.6883H70.9451ZM66.956 24.3162L65.8017 20.9526C65.6791 20.6095 65.4502 19.8011 65.1134 18.5258H65.0725C64.9385 19.0741 64.721 19.8841 64.4235 20.9541L63.2905 24.3162H66.956ZM82.2423 24.9288C82.2423 26.5095 81.7911 27.7582 80.8853 28.6747C80.0761 29.4893 79.0706 29.8967 77.8689 29.8967C76.5725 29.8967 75.6422 29.458 75.0732 28.5807H75.034V33.4734H72.8465V23.4577C72.8465 22.4644 72.8187 21.4445 72.7648 20.3995H74.689L74.81 21.8722H74.8525C75.5817 20.763 76.6869 20.2084 78.1714 20.2084C79.3322 20.2084 80.3017 20.6408 81.0783 21.5087C81.8548 22.3751 82.2423 23.5141 82.2423 24.9288ZM80.0156 25.0055C80.0156 24.1016 79.7998 23.3558 79.3665 22.7683C79.153 22.4768 78.8674 22.2405 78.5354 22.0806C78.2033 21.9207 77.835 21.8421 77.4635 21.8518C76.924 21.8518 76.4335 22.021 75.997 22.3579C75.5594 22.693 75.2552 23.162 75.1354 23.6864C75.0754 23.8917 75.0414 24.1032 75.034 24.3162V25.8641C75.034 26.5409 75.2531 27.1111 75.6929 27.5764C76.131 28.0417 76.7016 28.2736 77.403 28.2736C78.227 28.2736 78.8679 27.9744 79.3256 27.3759C79.785 26.7759 80.0156 25.9863 80.0156 25.0055ZM93.5608 24.9288C93.5608 26.5095 93.1095 27.7582 92.2038 28.6747C91.3945 29.4893 90.389 29.8967 89.1874 29.8967C87.8909 29.8967 86.9606 29.458 86.3933 28.5807H86.3525V33.4734H84.1666V23.4577C84.1666 22.4644 84.1388 21.4445 84.0848 20.3995H86.0091L86.1301 21.8722H86.171C86.9002 20.763 88.007 20.2084 89.4915 20.2084C90.6523 20.2084 91.6217 20.6408 92.3983 21.5087C93.1733 22.3751 93.5608 23.5141 93.5608 24.9288ZM91.334 25.0055C91.334 24.1016 91.1182 23.3558 90.685 22.7683C90.4716 22.4766 90.1861 22.2402 89.854 22.0802C89.5219 21.9203 89.1535 21.8418 88.7819 21.8518C88.2424 21.8518 87.7519 22.021 87.3138 22.3579C86.8768 22.6933 86.5732 23.1623 86.4538 23.6864C86.3884 23.9418 86.3525 24.1517 86.3525 24.3162V25.8641C86.3525 26.5409 86.5732 27.1111 87.0097 27.5764C87.4478 28.0402 88.0184 28.2736 88.7214 28.2736C89.5454 28.2736 90.1863 27.9744 90.6457 27.3759C91.1035 26.7759 91.334 25.9863 91.334 25.0055ZM106.217 26.0756C106.217 27.1722 105.813 28.0621 105.005 28.7514C104.116 29.5034 102.878 29.8794 101.287 29.8794C99.8175 29.8794 98.6404 29.6115 97.7494 29.0757L98.2562 27.3555C99.2159 27.9039 100.269 28.1796 101.416 28.1796C102.24 28.1796 102.881 28.0026 103.342 27.6532C103.8 27.3023 104.029 26.8323 104.029 26.2448C104.029 25.7231 103.841 25.2813 103.462 24.9241C103.086 24.5669 102.456 24.2347 101.578 23.9292C99.1897 23.0879 97.9962 21.855 97.9962 20.235C97.9962 19.176 98.4148 18.308 99.2519 17.6328C100.086 16.956 101.201 16.6176 102.594 16.6176C103.836 16.6176 104.866 16.8213 105.69 17.2286L105.144 18.9112C104.376 18.5164 103.504 18.319 102.531 18.319C101.763 18.319 101.161 18.4992 100.731 18.8548C100.557 18.9993 100.418 19.1785 100.323 19.3797C100.229 19.581 100.181 19.7997 100.184 20.0204C100.179 20.2628 100.234 20.5029 100.343 20.7218C100.452 20.9406 100.612 21.1323 100.812 21.2816C101.174 21.5886 101.837 21.9192 102.796 22.2764C103.97 22.7229 104.833 23.2446 105.388 23.8431C105.94 24.4384 106.217 25.1857 106.217 26.0756ZM113.446 21.949H111.036V26.4578C111.036 27.6046 111.461 28.178 112.311 28.178C112.702 28.178 113.026 28.1467 113.283 28.0825L113.343 29.6491C112.911 29.8011 112.346 29.8779 111.643 29.8779C110.78 29.8779 110.104 29.6288 109.617 29.1321C109.132 28.6355 108.888 27.8005 108.888 26.6286V21.9458H107.453V20.398H108.888V18.6966L111.036 18.0856V20.398H113.446V21.949ZM124.318 24.9679C124.318 26.3936 123.887 27.5686 123.023 28.4835C122.118 29.4282 120.914 29.8982 119.417 29.8982C117.973 29.8982 116.824 29.4455 115.967 28.5415C115.109 27.6375 114.68 26.497 114.68 25.1215C114.68 23.6817 115.122 22.5036 116.005 21.5855C116.889 20.669 118.081 20.21 119.579 20.21C121.024 20.21 122.185 20.6612 123.061 21.5667C123.901 22.444 124.32 23.5783 124.32 24.9664L124.318 24.9679ZM122.051 25.0337C122.051 24.1768 121.858 23.442 121.464 22.8294C121.006 22.0884 120.352 21.7187 119.502 21.7187C118.622 21.7187 117.955 22.09 117.496 22.831C117.103 23.4436 116.91 24.1893 116.91 25.0713C116.91 25.9299 117.103 26.6646 117.496 27.2756C117.97 28.0167 118.629 28.388 119.482 28.388C120.316 28.388 120.972 28.0088 121.444 27.2568C121.848 26.6318 122.051 25.8891 122.051 25.0337ZM131.427 22.2153C131.199 22.1762 130.968 22.1568 130.737 22.1573C129.968 22.1573 129.373 22.4315 128.955 22.9798C128.59 23.4655 128.409 24.0765 128.409 24.8144V29.6867H126.223L126.242 23.3261C126.242 22.2545 126.215 21.28 126.161 20.4011H128.065L128.146 22.1777H128.206C128.437 21.5667 128.801 21.0748 129.3 20.705C129.787 20.3745 130.313 20.2084 130.879 20.2084C131.082 20.2084 131.263 20.2225 131.427 20.246V22.2137V22.2153ZM141.205 24.6045C141.205 24.9742 141.179 25.286 141.123 25.5398H134.566C134.59 26.4578 134.909 27.1597 135.517 27.6438C136.07 28.0762 136.784 28.294 137.662 28.294C138.633 28.294 139.52 28.1467 140.316 27.8537L140.659 29.2857C139.727 29.6695 138.629 29.8606 137.36 29.8606C135.834 29.8606 134.636 29.4376 133.763 28.5901C132.895 27.7425 132.458 26.6051 132.458 25.1779C132.458 23.7773 132.864 22.6117 133.675 21.6811C134.525 20.6878 135.671 20.1927 137.116 20.1927C138.534 20.1927 139.608 20.6878 140.337 21.6811C140.914 22.4707 141.203 23.4451 141.203 24.6045H141.205ZM139.119 24.0687C139.135 23.4577 138.991 22.9281 138.694 22.4832C138.318 21.9082 137.736 21.6215 136.953 21.6215C136.238 21.6215 135.656 21.902 135.212 22.4628C134.84 22.9277 134.616 23.4851 134.566 24.0687H139.119Z" fill="#E7E7E7"></path> </g> <defs> <clipPath id="clip0"> <path d="M0 8C0 3.58172 3.58172 0 8 0H162.375C166.793 0 170.375 3.58172 170.375 8V39C170.375 43.4183 166.793 47 162.375 47H8C3.58172 47 0 43.4183 0 39V8Z" fill="white"></path> </clipPath> </defs> </svg> 