<?xml version="1.0" encoding="UTF-8"?> <svg xmlns="http://www.w3.org/2000/svg" width="171" height="47" viewBox="0 0 171 47" fill="none"> <path d="M164.065 47H6.31018C2.77648 47 0 44.415 0 41.125V5.875C0 2.585 2.77648 0 6.31018 0H164.065C167.599 0 170.375 2.585 170.375 5.875V41.125C170.375 44.415 167.599 47 164.065 47Z" fill="black"></path> <path d="M56.4761 12.4829V11.3163H60.3291V11.8996C60.3291 12.9198 60.0389 13.7369 59.4227 14.3153C58.6426 15.0475 57.7364 15.3994 56.6004 15.3994C55.4643 15.3994 54.5581 15.0475 53.7781 14.3153C52.998 13.5832 52.623 12.7326 52.623 11.6662C52.623 10.5999 52.998 9.74934 53.7781 9.01718C54.5581 8.28502 55.4643 7.93304 56.6004 7.93304C57.1174 7.93304 57.6335 8.05415 58.1475 8.29535C58.7244 8.5661 59.0717 8.81061 59.3139 9.15162L59.3704 9.2312L58.5787 9.9743L58.492 9.87252C58.0306 9.33113 57.4552 9.09967 56.6004 9.09967C55.821 9.09967 55.1469 9.35853 54.7088 9.87252L54.7001 9.88265L54.6894 9.89074C54.1319 10.3093 53.866 10.9472 53.866 11.7829C53.866 12.6186 54.1319 13.2565 54.6894 13.6751C55.4096 14.2159 55.9694 14.4661 56.6004 14.4661C57.4446 14.4661 58.0322 14.2405 58.6254 13.6837C58.9746 13.356 59.1781 12.9514 59.2069 12.4829H56.4761Z" fill="white"></path> <path d="M66.0465 14.1162V15.2828H61.4478V8.04971H66.0465V9.09968H62.6907V11.0829H65.798V12.1329H62.6907V14.1162H66.0465Z" fill="white"></path> <path d="M70.1483 15.2828H68.9054V9.09968H66.7925V8.04971H72.2613V9.09968H70.1483V15.2828Z" fill="white"></path> <path d="M75.6172 8.04971H76.8601V15.2828H75.6172V8.04971Z" fill="white"></path> <path d="M80.9665 15.1706V15.0494H80.8374V15.1706H80.9665Z" fill="white"></path> <path d="M80.9616 15.2828H79.8429V9.09968H77.73V8.04971H83.0745V9.09968H80.9616V15.2828Z" fill="white"></path> <path d="M89.8857 8.06369C91.0168 8.06369 91.919 8.41412 92.6957 9.14308C93.4723 9.87203 93.8456 10.7189 93.8456 11.7806C93.8456 12.8422 93.4723 13.6891 92.6957 14.418C91.919 15.147 91.0168 15.4974 89.8857 15.4974C88.7546 15.4974 87.8524 15.147 87.0757 14.418C86.2991 13.6891 85.9258 12.8422 85.9258 11.7806C85.9258 10.7189 86.2991 9.87203 87.0757 9.14308C87.8524 8.41412 88.7546 8.06369 89.8857 8.06369ZM89.9179 9.12997C89.1419 9.12997 88.4707 9.38769 88.0345 9.89944L88.0254 9.90901C87.5103 10.3925 87.1954 11.0722 87.1954 11.8015C87.1954 12.6335 87.4602 13.2686 88.0152 13.6854L88.0254 13.6939C88.5291 14.1667 89.247 14.473 89.9179 14.473C90.6939 14.473 91.365 14.2152 91.8012 13.7035L91.8103 13.6939C92.3255 13.2104 92.6403 12.5307 92.6403 11.8015C92.6403 10.9694 92.3756 10.3343 91.8205 9.91758L91.8103 9.90901C91.3066 9.43623 90.5888 9.12997 89.9179 9.12997Z" fill="white"></path> <path d="M96.1054 15.2968H94.9868V8.06369H96.2991L99.7099 13.2522V8.06369H100.953V15.2968H99.7657L96.1054 9.86625V15.2968Z" fill="white"></path> <path d="M85.9332 25.4324C82.9502 25.4324 80.5887 27.5323 80.5887 30.4489C80.5887 33.2488 82.9502 35.4654 85.9332 35.4654C88.9162 35.4654 91.2777 33.3655 91.2777 30.4489C91.2777 27.4157 88.9162 25.4324 85.9332 25.4324ZM85.9332 33.3655C84.3174 33.3655 82.9502 32.0822 82.9502 30.3322C82.9502 28.5823 84.3174 27.299 85.9332 27.299C87.549 27.299 88.9162 28.4656 88.9162 30.3322C88.9162 32.0822 87.549 33.3655 85.9332 33.3655ZM74.3741 25.4324C71.3911 25.4324 69.0296 27.5323 69.0296 30.4489C69.0296 33.2488 71.3911 35.4654 74.3741 35.4654C77.3571 35.4654 79.7186 33.3655 79.7186 30.4489C79.7186 27.4157 77.3571 25.4324 74.3741 25.4324ZM74.3741 33.3655C72.7583 33.3655 71.3911 32.0822 71.3911 30.3322C71.3911 28.5823 72.7583 27.299 74.3741 27.299C75.9899 27.299 77.3571 28.4656 77.3571 30.3322C77.3571 32.0822 75.9899 33.3655 74.3741 33.3655ZM60.5778 26.949V29.049H65.9223C65.798 30.2156 65.3008 31.1489 64.6794 31.7322C63.9336 32.4322 62.6907 33.2488 60.5778 33.2488C57.2219 33.2488 54.7361 30.7989 54.7361 27.649C54.7361 24.4991 57.3462 22.0492 60.5778 22.0492C62.3178 22.0492 63.685 22.7492 64.6794 23.5658L66.2952 22.0492C64.928 20.8826 63.1879 19.9493 60.702 19.9493C56.2275 19.9493 52.3745 23.4492 52.3745 27.649C52.3745 31.8489 56.2275 35.3487 60.702 35.3487C63.1879 35.3487 64.928 34.6488 66.4195 33.1321C67.9109 31.7322 68.4081 29.7489 68.4081 28.2323C68.4081 27.7657 68.4081 27.299 68.2838 26.949H60.5778ZM117.006 28.5823C116.509 27.4157 115.266 25.4324 112.532 25.4324C109.797 25.4324 107.56 27.4157 107.56 30.4489C107.56 33.2488 109.797 35.4654 112.78 35.4654C115.142 35.4654 116.633 34.0654 117.13 33.2488L115.39 32.0822C114.769 32.8988 114.023 33.4821 112.78 33.4821C111.537 33.4821 110.792 33.0155 110.17 31.9655L117.255 29.1656L117.006 28.5823ZM109.797 30.2156C109.797 28.349 111.413 27.299 112.532 27.299C113.402 27.299 114.272 27.7657 114.52 28.349L109.797 30.2156ZM103.955 34.9987H106.317V20.4159H103.955V34.9987ZM100.227 26.4824C99.6053 25.8991 98.611 25.3158 97.368 25.3158C94.7579 25.3158 92.2721 27.5323 92.2721 30.3322C92.2721 33.1321 94.6336 35.2321 97.368 35.2321C98.611 35.2321 99.6053 34.6488 100.102 34.0654H100.227V34.7654C100.227 36.632 99.1081 37.682 97.368 37.682C96.0008 37.682 95.0065 36.7487 94.7579 35.932L92.7692 36.7487C93.3907 38.032 94.8822 39.6652 97.4923 39.6652C100.227 39.6652 102.464 38.1486 102.464 34.5321V25.6657H100.227V26.4824ZM97.4923 33.3655C95.8765 33.3655 94.5093 32.0822 94.5093 30.3322C94.5093 28.5823 95.8765 27.299 97.4923 27.299C99.1081 27.299 100.351 28.5823 100.351 30.3322C100.351 32.0822 99.1081 33.3655 97.4923 33.3655ZM127.819 20.4159H122.226V34.9987H124.588V29.5156H127.819C130.43 29.5156 132.915 27.7657 132.915 24.9658C132.915 22.1659 130.43 20.4159 127.819 20.4159ZM127.944 27.4157H124.588V22.3992H127.944C129.684 22.3992 130.678 23.7991 130.678 24.8491C130.554 26.1324 129.56 27.4157 127.944 27.4157ZM142.237 25.3158C140.497 25.3158 138.757 26.0157 138.136 27.5323L140.249 28.349C140.746 27.5323 141.492 27.299 142.362 27.299C143.604 27.299 144.723 27.999 144.847 29.1656V29.2823C144.475 29.049 143.48 28.699 142.486 28.699C140.249 28.699 138.011 29.8656 138.011 31.9655C138.011 33.9488 139.876 35.2321 141.864 35.2321C143.48 35.2321 144.226 34.5321 144.847 33.8321H144.972V34.9987H147.209V29.3989C146.96 26.8324 144.847 25.3158 142.237 25.3158ZM141.989 33.3655C141.243 33.3655 140.124 33.0155 140.124 32.0822C140.124 30.9156 141.492 30.5656 142.61 30.5656C143.604 30.5656 144.102 30.7989 144.723 31.0322C144.475 32.4322 143.232 33.3655 141.989 33.3655ZM155.039 25.6657L152.429 31.9655H152.305L149.57 25.6657H147.085L151.186 34.5321L148.825 39.4319H151.186L157.525 25.6657H155.039ZM134.158 34.9987H136.52V20.4159H134.158V34.9987Z" fill="white"></path> <path d="M14.2169 8.74973C13.844 9.09971 13.7197 9.68303 13.7197 10.383V36.1654C13.7197 36.8654 13.9683 37.4487 14.3412 37.7987L14.4655 37.9154L29.8776 23.4492V23.2159L14.2169 8.74973Z" fill="url(#paint0_linear)"></path> <path d="M34.8494 28.349L29.7534 23.5659V23.2159L34.8494 18.4327L34.9737 18.5494L41.0639 21.8159C42.804 22.7492 42.804 24.2658 41.0639 25.1991L34.8494 28.349Z" fill="url(#paint1_linear)"></path> <path d="M34.9735 28.2324L29.7532 23.3326L14.2168 37.9154C14.8383 38.4987 15.7083 38.4987 16.8269 38.032L34.9735 28.2324Z" fill="url(#paint2_linear)"></path> <path d="M34.9735 18.4345L16.8269 8.75151C15.7083 8.1682 14.8383 8.28486 14.2168 8.86817L29.7532 23.3343L34.9735 18.4345Z" fill="url(#paint3_linear)"></path> <path opacity="0.2" d="M34.8492 28.1157L16.8269 37.682C15.8326 38.2653 14.9625 38.1487 14.3411 37.682L14.2168 37.7987L14.3411 37.9154C14.9625 38.382 15.8326 38.4987 16.8269 37.9154L34.8492 28.1157Z" fill="black"></path> <path opacity="0.12" d="M14.2169 37.682C13.844 37.3321 13.7197 36.7487 13.7197 36.0488V36.1654C13.7197 36.8654 13.9683 37.4487 14.3412 37.7987V37.682H14.2169ZM41.0639 24.8492L34.8493 28.1157L34.9736 28.2324L41.0639 24.9658C41.9339 24.4992 42.3068 23.9159 42.3068 23.3326C42.3068 23.9159 41.8096 24.3825 41.0639 24.8492Z" fill="black"></path> <path opacity="0.25" d="M16.827 8.86636L41.0639 21.8159C41.8096 22.2826 42.3068 22.7492 42.3068 23.3325C42.3068 22.7492 41.9339 22.1659 41.0639 21.6992L16.827 8.7497C15.0869 7.8164 13.7197 8.51638 13.7197 10.383V10.4996C13.7197 8.7497 15.0869 7.93306 16.827 8.86636Z" fill="white"></path> <defs> <linearGradient id="paint0_linear" x1="23.5818" y1="10.1613" x2="11.1639" y2="23.3768" gradientUnits="userSpaceOnUse"> <stop stop-color="#00A0FF"></stop> <stop offset="0.007" stop-color="#00A1FF"></stop> <stop offset="0.26" stop-color="#00BEFF"></stop> <stop offset="0.512" stop-color="#00D2FF"></stop> <stop offset="0.76" stop-color="#00DFFF"></stop> <stop offset="1" stop-color="#00E3FF"></stop> </linearGradient> <linearGradient id="paint1_linear" x1="43.3435" y1="23.3337" x2="13.2686" y2="23.3337" gradientUnits="userSpaceOnUse"> <stop stop-color="#FFE000"></stop> <stop offset="0.409" stop-color="#FFBD00"></stop> <stop offset="0.775" stop-color="#FFA500"></stop> <stop offset="1" stop-color="#FF9C00"></stop> </linearGradient> <linearGradient id="paint2_linear" x1="32.1483" y1="27.971" x2="11.0019" y2="50.4771" gradientUnits="userSpaceOnUse"> <stop stop-color="#FF3A44"></stop> <stop offset="1" stop-color="#C31162"></stop> </linearGradient> <linearGradient id="paint3_linear" x1="10.36" y1="6.62898" x2="19.7708" y2="16.6448" gradientUnits="userSpaceOnUse"> <stop stop-color="#32A071"></stop> <stop offset="0.069" stop-color="#2DA771"></stop> <stop offset="0.476" stop-color="#15CF74"></stop> <stop offset="0.801" stop-color="#06E775"></stop> <stop offset="1" stop-color="#00F076"></stop> </linearGradient> </defs> </svg> 