<?xml version="1.0" encoding="UTF-8"?>
<svg width="40px" height="32px" viewBox="0 0 40 32" version="1.1" xmlns="http://www.w3.org/2000/svg" xmlns:xlink="http://www.w3.org/1999/xlink">
    <!-- Generator: Sketch 40.2 (33826) - http://www.bohemiancoding.com/sketch -->
    <title>masterpass</title>
    <desc>Created with Sketch.</desc>
    <defs>
        <polygon id="path-1" points="0.0115213675 5.47008547 37.3903248 5.47008547 37.3903248 0.226153846 0.0115213675 0.226153846"></polygon>
        <polygon id="path-3" points="0.000121483427 31.9349744 39.8257625 31.9349744 39.8257625 -6.83760684e-05 0.000121483427 -6.83760684e-05"></polygon>
    </defs>
    <g id="Page-1" stroke="none" stroke-width="1" fill="none" fill-rule="evenodd">
        <g id="01_Sposobi_Desktop" transform="translate(-1155.000000, -307.000000)">
            <g id="про-меню" transform="translate(328.000000, 61.000000)">
                <g id="3" transform="translate(661.000000, 241.000000)">
                    <g id="masterpass" transform="translate(166.000000, 5.000000)">
                        <g id="Group-3" transform="translate(2.051404, 26.464889)">
                            <mask id="mask-2" fill="white">
                                <use xlink:href="#path-1"></use>
                            </mask>
                            <g id="Clip-2"></g>
                            <path d="M37.3903248,4.34 L37.3903248,3.86239316 L37.2655385,3.86239316 L37.1219487,4.19094017 L36.9787009,3.86239316 L36.8539145,3.86239316 L36.8539145,4.34 L36.9417778,4.34 L36.9417778,3.97965812 L37.0764786,4.29008547 L37.1677607,4.29008547 L37.3021197,3.97897436 L37.3021197,4.34 L37.3903248,4.34 Z M36.5130598,4.34 L36.5130598,3.94376068 L36.3530598,3.94376068 L36.3530598,3.86307692 L36.7598974,3.86307692 L36.7598974,3.94376068 L36.6002393,3.94376068 L36.6002393,4.34 L36.5130598,4.34 Z M35.8744274,1.44017094 C35.5448547,1.22239316 35.089812,1.11025641 34.5882735,1.11025641 C33.7903248,1.11025641 33.275453,1.49282051 33.275453,2.1191453 C33.275453,2.63401709 33.6580171,2.95059829 34.364,3.04940171 L34.6870769,3.09555556 C35.0631453,3.14854701 35.241265,3.24735043 35.241265,3.42512821 C35.241265,3.66923077 34.9903248,3.80769231 34.5222906,3.80769231 C34.0474188,3.80769231 33.7045128,3.65623932 33.4734017,3.47811966 L33.1503248,4.01247863 C33.5260513,4.28974359 34.001265,4.42136752 34.5157949,4.42136752 C35.4258803,4.42136752 35.9537436,3.99264957 35.9537436,3.39264957 C35.9537436,2.83811966 35.5380171,2.54820513 34.8518632,2.44905983 L34.5287863,2.40290598 C34.2320342,2.36358974 33.9944274,2.30410256 33.9944274,2.09316239 C33.9944274,1.86205128 34.2190427,1.72358974 34.5947692,1.72358974 C34.9971624,1.72358974 35.3865641,1.87504274 35.5776752,1.99401709 L35.8744274,1.44017094 Z M32.5828034,1.44017094 C32.2532308,1.22239316 31.798188,1.11025641 31.2969915,1.11025641 C30.4987009,1.11025641 29.9841709,1.49282051 29.9841709,2.1191453 C29.9841709,2.63401709 30.366735,2.95059829 31.0727179,3.04940171 L31.3957949,3.09555556 C31.7715214,3.14854701 31.949641,3.24735043 31.949641,3.42512821 C31.949641,3.66923077 31.6993846,3.80769231 31.2306667,3.80769231 C30.7557949,3.80769231 30.4128889,3.65623932 30.1821197,3.47811966 L29.8587009,4.01247863 C30.2347692,4.28974359 30.709641,4.42136752 31.2241709,4.42136752 C32.1345983,4.42136752 32.6621197,3.99264957 32.6621197,3.39264957 C32.6621197,2.83811966 32.2463932,2.54820513 31.5605812,2.44905983 L31.2375043,2.40290598 C30.9407521,2.36358974 30.7028034,2.30410256 30.7028034,2.09316239 C30.7028034,1.86205128 30.9274188,1.72358974 31.3031453,1.72358974 C31.7055385,1.72358974 32.0949402,1.87504274 32.2860513,1.99401709 L32.5828034,1.44017094 Z M24.7270769,2.75230769 C24.7270769,3.30683761 24.364,3.76188034 23.7704957,3.76188034 C23.2033162,3.76188034 22.8207521,3.32632479 22.8207521,2.75230769 C22.8207521,2.17863248 23.2033162,1.7434188 23.7704957,1.7434188 C24.364,1.7434188 24.7270769,2.19846154 24.7270769,2.75230769 L24.7270769,2.75230769 Z M22.1742564,2.75230769 L22.1742564,5.47025641 L22.8604103,5.47025641 L22.8604103,3.94649573 C23.078188,4.22991453 23.4081026,4.40803419 23.8563077,4.40803419 C24.7400684,4.40803419 25.4327179,3.7157265 25.4327179,2.75230769 C25.4327179,1.78957265 24.7400684,1.09692308 23.8563077,1.09692308 C23.4081026,1.09692308 23.078188,1.27504274 22.8604103,1.55846154 L22.8604103,1.17589744 L22.1742564,1.17589744 L22.1742564,2.75230769 Z M26.6402393,2.7591453 C26.6402393,2.20495726 27.0026325,1.74991453 27.5964786,1.74991453 C28.1636581,1.74991453 28.5462222,2.18512821 28.5462222,2.7591453 C28.5462222,3.33316239 28.1636581,3.76837607 27.5964786,3.76837607 C27.0026325,3.76837607 26.6402393,3.31333333 26.6402393,2.7591453 L26.6402393,2.7591453 Z M29.1923761,2.7591453 L29.1923761,1.18273504 L28.506906,1.18273504 L28.506906,1.56529915 C28.2887863,1.28188034 27.9592137,1.1034188 27.5106667,1.1034188 C26.626906,1.1034188 25.9339145,1.79641026 25.9339145,2.7591453 C25.9339145,3.72222222 26.626906,4.41487179 27.5106667,4.41487179 C27.9592137,4.41487179 28.2887863,4.23675214 28.506906,3.95299145 L28.506906,4.33555556 L29.1923761,4.33555556 L29.1923761,2.7591453 Z M6.324,2.7591453 C6.324,2.20495726 6.68673504,1.74991453 7.28023932,1.74991453 C7.8474188,1.74991453 8.23032479,2.18512821 8.23032479,2.7591453 C8.23032479,3.33316239 7.8474188,3.76837607 7.28023932,3.76837607 C6.68673504,3.76837607 6.324,3.31333333 6.324,2.7591453 L6.324,2.7591453 Z M8.87682051,2.7591453 L8.87682051,1.18273504 L8.19066667,1.18273504 L8.19066667,1.56529915 C7.97288889,1.28188034 7.64297436,1.1034188 7.19442735,1.1034188 C6.31066667,1.1034188 5.61801709,1.79641026 5.61801709,2.7591453 C5.61801709,3.72222222 6.31066667,4.41487179 7.19442735,4.41487179 C7.64297436,4.41487179 7.97288889,4.23675214 8.19066667,3.95299145 L8.19066667,4.33555556 L8.87682051,4.33555556 L8.87682051,2.7591453 Z M17.3855385,1.71675214 C17.8275897,1.71675214 18.1110085,1.99401709 18.1838291,2.48188034 L16.5479316,2.48188034 C16.6204103,2.02683761 16.8976752,1.71675214 17.3855385,1.71675214 L17.3855385,1.71675214 Z M17.3985299,1.1034188 C16.475453,1.1034188 15.8289573,1.77623932 15.8289573,2.7591453 C15.8289573,3.76188034 16.5017778,4.41487179 17.4450256,4.41487179 C17.9198974,4.41487179 18.3551111,4.29589744 18.7376752,3.97282051 L18.401265,3.46478632 C18.1376752,3.67606838 17.801265,3.79470085 17.4843419,3.79470085 C17.0426325,3.79470085 16.6402393,3.59025641 16.5414359,3.02273504 L18.8829744,3.02273504 C18.8894701,2.93692308 18.8959658,2.85145299 18.8959658,2.7591453 C18.8894701,1.77623932 18.2826325,1.1034188 17.3985299,1.1034188 L17.3985299,1.1034188 Z M12.266906,1.43333333 C11.9369915,1.21555556 11.4819487,1.1034188 10.9807521,1.1034188 C10.1824615,1.1034188 9.6682735,1.48598291 9.6682735,2.11264957 C9.6682735,2.62717949 10.0508376,2.94376068 10.7564786,3.04290598 L11.0798974,3.08905983 C11.4556239,3.1417094 11.6337436,3.24051282 11.6337436,3.41897436 C11.6337436,3.66307692 11.3831453,3.80153846 10.9147692,3.80153846 C10.4398974,3.80153846 10.0969915,3.64940171 9.86588034,3.47162393 L9.54280342,4.00564103 C9.91887179,4.28290598 10.3937436,4.41487179 10.9082735,4.41487179 C11.818359,4.41487179 12.3462222,3.98615385 12.3462222,3.38581197 C12.3462222,2.83162393 11.9304957,2.54136752 11.2446838,2.4425641 L10.9216068,2.39606838 C10.6245128,2.35675214 10.3872479,2.29726496 10.3872479,2.08632479 C10.3872479,1.85521368 10.6111795,1.71675214 10.9872479,1.71675214 C11.389641,1.71675214 11.7787009,1.86854701 11.9701538,1.98752137 L12.266906,1.43333333 Z M21.1123761,1.1034188 C20.7164786,1.1034188 20.4593846,1.28803419 20.281265,1.56529915 L20.281265,1.18273504 L19.6019487,1.18273504 L19.6019487,4.33555556 L20.2881026,4.33555556 L20.2881026,2.56769231 C20.2881026,2.04666667 20.5120342,1.75641026 20.9605812,1.75641026 C21.0993846,1.75641026 21.244,1.77623932 21.3892991,1.8357265 L21.6002393,1.18923077 C21.4487863,1.12974359 21.2508376,1.1034188 21.1123761,1.1034188 L21.1123761,1.1034188 Z M15.2614359,1.18273504 L14.1404103,1.18273504 L14.1404103,0.226153846 L13.4477607,0.226153846 L13.4477607,1.18273504 L12.8081026,1.18273504 L12.8081026,1.80940171 L13.4477607,1.80940171 L13.4477607,3.24735043 C13.4477607,3.97931624 13.7311795,4.41487179 14.5428034,4.41487179 C14.8395556,4.41487179 15.1824615,4.32222222 15.4002393,4.17076923 L15.2022906,3.58376068 C14.9978462,3.70239316 14.7735726,3.76188034 14.595453,3.76188034 C14.252547,3.76188034 14.1404103,3.55059829 14.1404103,3.23435897 L14.1404103,1.80940171 L15.2614359,1.80940171 L15.2614359,1.18273504 Z M5.01152137,4.33555556 L5.01152137,2.35675214 C5.01152137,1.61145299 4.53630769,1.11025641 3.77117949,1.1034188 C3.36878632,1.09692308 2.95305983,1.22239316 2.66280342,1.66410256 C2.44536752,1.31435897 2.10246154,1.1034188 1.62109402,1.1034188 C1.28434188,1.1034188 0.954769231,1.20222222 0.697333333,1.57179487 L0.697333333,1.18273504 L0.0115213675,1.18273504 L0.0115213675,4.33555556 L0.70382906,4.33555556 L0.70382906,2.58752137 C0.70382906,2.04017094 1.0074188,1.74991453 1.47579487,1.74991453 C1.93083761,1.74991453 2.16194872,2.04666667 2.16194872,2.58102564 L2.16194872,4.33555556 L2.85425641,4.33555556 L2.85425641,2.58752137 C2.85425641,2.04017094 3.17083761,1.74991453 3.62588034,1.74991453 C4.09425641,1.74991453 4.31887179,2.04666667 4.31887179,2.58102564 L4.31887179,4.33555556 L5.01152137,4.33555556 Z" id="Fill-1" fill="#000000" mask="url(#mask-2)"></path>
                        </g>
                        <mask id="mask-4" fill="white">
                            <use xlink:href="#path-3"></use>
                        </mask>
                        <g id="Clip-5"></g>
                        <polygon id="Fill-4" fill="#FF5F00" mask="url(#mask-4)" points="14.5283266 21.9842051 25.2975574 21.9842051 25.2975574 2.63138462 14.5283266 2.63138462"></polygon>
                        <path d="M15.2121215,12.3076239 C15.2121215,8.38181197 17.0504121,4.88505983 19.9129762,2.63138462 C17.819301,0.983179487 15.1779334,-6.83760684e-05 12.3068223,-6.83760684e-05 C5.51024114,-6.83760684e-05 0.000155671461,5.51035897 0.000155671461,12.3076239 C0.000155671461,19.1048889 5.51024114,24.6153162 12.3068223,24.6153162 C15.1779334,24.6153162 17.819301,23.6320684 19.9129762,21.9842051 C17.0504121,19.730188 15.2121215,16.2337778 15.2121215,12.3076239" id="Fill-6" fill="#EC001B" mask="url(#mask-4)"></path>
                        <path d="M39.4417283,19.950188 L39.4417283,19.4725812 L39.316942,19.4725812 L39.1733523,19.8011282 L39.0301044,19.4725812 L38.9053181,19.4725812 L38.9053181,19.950188 L38.9931813,19.950188 L38.9931813,19.5898462 L39.1278822,19.9002735 L39.2191642,19.9002735 L39.3535232,19.5891624 L39.3535232,19.950188 L39.4417283,19.950188 Z M38.6516429,19.950188 L38.6516429,19.5539487 L38.811301,19.5539487 L38.811301,19.473265 L38.4044634,19.473265 L38.4044634,19.5539487 L38.5644634,19.5539487 L38.5644634,19.950188 L38.6516429,19.950188 Z M39.8260018,12.3235214 C39.8260018,19.1207863 34.3159164,24.6312137 27.5189933,24.6312137 C24.648224,24.6312137 22.0065146,23.6479658 19.9128394,22.0001026 C22.7757454,19.7460855 24.6136941,16.2496752 24.6136941,12.3235214 C24.6136941,8.3977094 22.7757454,4.90095726 19.9128394,2.64728205 C22.0065146,0.999418803 24.648224,0.0158290598 27.5189933,0.0158290598 C34.3159164,0.0158290598 39.8260018,5.52625641 39.8260018,12.3235214 L39.8260018,12.3235214 Z" id="Fill-7" fill="#F89E1B" mask="url(#mask-4)"></path>
                    </g>
                </g>
            </g>
        </g>
    </g>
</svg>