<?xml version="1.0" encoding="UTF-8" standalone="no"?>
<svg width="31px" height="31px" viewBox="0 0 31 31" version="1.1" xmlns="http://www.w3.org/2000/svg" xmlns:xlink="http://www.w3.org/1999/xlink" xmlns:sketch="http://www.bohemiancoding.com/sketch/ns">
    <!-- Generator: Sketch 3.5.2 (25235) - http://www.bohemiancoding.com/sketch -->
    <title>sber</title>
    <desc>Created with Sketch.</desc>
    <defs></defs>
    <g id="Page-1" stroke="none" stroke-width="1" fill="none" fill-rule="evenodd" sketch:type="MSPage">
        <g id="Desktop_v1" sketch:type="MSArtboardGroup" transform="translate(-989.000000, -307.000000)" fill="#01703C">
            <g id="про-меню" sketch:type="MSLayerGroup" transform="translate(328.000000, 255.000000)">
                <g id="3" transform="translate(661.000000, 47.000000)" sketch:type="MSShapeGroup">
                    <path d="M10.2046312,14.0706454 L5.51521,11.3670133 C5.18136078,11.7354789 4.8675068,12.1225557 4.57561189,12.5253804 L10.2046312,15.7726738 L22.3110395,8.79258581 C21.8041957,8.4948069 21.2769996,8.22977651 20.7337358,8 L10.2046312,14.0706454 Z M10.2046312,17.4757759 L3.7752664,13.7676768 C3.53121726,14.195734 3.31055542,14.6372127 3.11470911,15.0892497 L10.2046312,19.1760147 L24.8615048,10.7261802 C24.4860583,10.3646938 24.0895454,10.0243239 23.6750011,9.70829175 L10.2046312,17.4757759 Z M10.2046312,20.8775062 L2.59590384,16.4920675 C2.49271408,16.8277846 2.40255694,17.1686914 2.32507535,17.5135351 C2.2902622,17.6690458 2.25812698,17.8252724 2.22884822,17.9825727 L10.2046312,22.5820399 L26.7740859,13.0278824 C26.6109104,12.7809263 26.4402367,12.5393388 26.2618862,12.3032989 C26.1833335,12.2002216 26.1033525,12.098218 26.0219433,11.997825 C25.9782037,11.9430652 25.934107,11.8890212 25.8894748,11.8351561 L10.2046312,20.8775062 Z M10.2046312,24.2829946 L2.03103809,19.5704286 C2.01532754,19.8064685 2.00497286,20.0444769 2.00122375,20.2844537 C1.99015495,21.1690217 2.06585125,22.0546635 2.2256347,22.9272416 C2.51574432,24.5095499 3.07025539,25.9757174 3.83846566,27.2908479 C4.81091311,28.9644226 6.12685035,30.3926519 7.67362558,31.496975 C8.71480669,32.2403485 9.86578314,32.8360853 11.0760312,33.258237 C11.6037629,33.4427383 12.1516684,33.5950278 12.7054654,33.7149268 C13.4872438,33.880101 14.2947305,33.976736 15.1198915,34 L15.8716771,34 C16.3124652,33.9871153 16.7570024,33.9527562 17.2031464,33.8954911 C19.0873414,33.6540826 20.9174422,33.0161127 22.5395567,32.0220251 C24.1066842,31.0610439 25.4490437,29.7945887 26.4966519,28.3191157 C27.5988899,26.7681242 28.3742413,24.9866404 28.7473669,23.0868682 C28.7955698,22.8422386 28.8373456,22.5954615 28.8721587,22.3468948 C28.9562459,21.7350522 29.000164,21.1094302 29.000164,20.4737867 C29.000164,20.3553194 28.9987358,20.2368521 28.9955222,20.1187426 C28.9805258,19.5616599 28.9301806,18.9995664 28.8437726,18.4353255 C28.6223966,16.9954642 28.17536,15.5974781 27.5149813,14.3027483 L10.2046312,24.2829946 Z" id="sber"></path>
                </g>
            </g>
        </g>
    </g>
</svg>